<?xml version="1.0" encoding="UTF-8" standalone="no"?>
<svg
   id="eNJOQDhH61t1"
   viewBox="0 0 50 50"
   shape-rendering="geometricPrecision"
   text-rendering="geometricPrecision"
   version="1.1"
   xmlns="http://www.w3.org/2000/svg"
   xmlns:svg="http://www.w3.org/2000/svg">
  <defs
     id="defs30">
    <linearGradient
       id="linearGradient1468">
      <stop
         style="stop-color:#000000;stop-opacity:1;"
         offset="0"
         id="stop1466" />
    </linearGradient>
  </defs>
  <path
     style="color:#000000;fill:#E1B573;stroke-width:1.2;stroke-dasharray:none"
     d="M 22.852113,0 19.99719,2.9776708 c 0.555057,0.5785395 0.838049,0.9796873 0.99821,1.4688589 0.16016,0.4891715 0.24147,1.1896429 -0.0045,2.4864837 -0.311488,1.642189 -0.462765,2.978079 -0.324475,4.2632166 0.138294,1.285139 0.650656,2.484796 1.37451,3.424204 l 3.145597,-2.636896 C 24.844039,11.539052 24.741664,11.303503 24.679541,10.726195 24.617411,10.14889 24.678341,9.1946624 24.952189,7.7508754 25.291544,5.9617434 25.251505,4.4129008 24.816992,3.0857789 24.382476,1.7586568 23.598398,0.7778533 22.852121,0 Z m 6.757627,0 -2.854923,2.9776708 c 0.555056,0.5785395 0.838047,0.9796873 0.998209,1.4688589 0.160158,0.4891715 0.243783,1.1896429 -0.0023,2.4864837 -0.31149,1.642189 -0.462767,2.978079 -0.324474,4.2632166 0.138291,1.285139 0.648401,2.484796 1.372255,3.424204 l 3.14785,-2.636896 C 31.603864,11.539052 31.499236,11.303503 31.437113,10.726195 31.374983,10.14889 31.435913,9.1946624 31.709761,7.7508754 32.04917,5.9617434 32.00907,4.4129008 31.574557,3.0857789 31.140041,1.7586568 30.355963,0.7778533 29.609685,0 Z m 6.798185,0 -2.854923,2.9776708 c 0.555057,0.5785395 0.838049,0.9796873 0.998209,1.4688589 0.160161,0.4891715 0.24147,1.1896429 -0.0045,2.4864837 -0.311487,1.642189 -0.462764,2.978079 -0.324474,4.2632166 0.138293,1.285139 0.650656,2.484796 1.374509,3.424204 l 3.145597,-2.636896 C 38.39985,11.539052 38.297476,11.303503 38.235352,10.726195 38.173222,10.14889 38.234152,9.1946624 38.508,7.7508754 38.847348,5.9617434 38.807309,4.4129008 38.372796,3.0857789 37.93828,1.7586568 37.154203,0.7778533 36.407925,0 Z M 9.003374,16.244405 v 0.95417 c -0.7360257,0.0125 -1.4431351,0.0905 -2.1113356,0.239718 -1.4985263,0.334652 -2.8096042,1.00163 -3.8666509,1.943593 -2.1140936,1.88393 -3.1126912,4.710084 -3.0194128,7.558161 0.1792439,5.472875 4.4244949,11.210206 12.1813023,12.491177 1.592248,2.721596 3.961984,5.100511 7.269123,7.156281 -1.660758,0.0042 -3.321215,0.0076 -4.982031,0.01179 l 0.0045,1.701527 0.0023,1.699176 c 9.605845,-0.02414 19.210712,-0.04636 28.815113,-0.0705 l -0.0023,-1.701526 -0.0045,-1.701526 c -1.260259,0.0031 -2.520752,0.0063 -3.781026,0.0094 4.699685,-2.903747 7.488028,-6.453803 8.900508,-10.700343 1.6454,-4.946806 1.590825,-10.566402 1.590825,-17.485297 V 16.24445 Z m 4.080714,4.211512 h 32.832733 c -0.02528,5.787834 -0.161697,10.507197 -1.322683,13.997637 -1.279689,3.847317 -3.652747,6.711762 -8.965854,9.466503 H 23.214893 C 17.989248,41.169995 15.653422,38.312836 14.390997,34.462956 13.24499,30.968094 13.108965,26.2448 13.084088,20.455917 Z m -4.242951,0.933018 c 0.05541,-0.002 0.114588,6.94e-4 0.17125,0 0.01834,5.002702 0.159297,9.349224 1.201006,13.219731 C 5.9035518,33.032736 4.135027,29.648605 4.0416226,26.796687 3.9842196,25.044 4.5709337,23.542824 5.6482206,22.582825 6.3888551,21.922823 7.4055735,21.440421 8.841137,21.388935 Z" />
  <g
     transform="matrix(1.1536861,0,0,1.2032892,-1.5145924,-5.9953758)"
     style="stroke-width:1.01847977;stroke-dasharray:none" />
</svg>
